<?xml version="1.0" standalone="no"?>
<!DOCTYPE svg PUBLIC "-//W3C//DTD SVG 20010904//EN"
 "http://www.w3.org/TR/2001/REC-SVG-20010904/DTD/svg10.dtd">
<svg version="1.0" xmlns="http://www.w3.org/2000/svg"
 width="828.000000pt" height="1313.000000pt" viewBox="0 0 828.000000 1313.000000"
 preserveAspectRatio="xMidYMid meet">

<g transform="translate(0.000000,1313.000000) scale(0.100000,-0.100000)"
fill="#000000" stroke="none">
<path d="M5634 13104 c-519 -87 -962 -520 -1053 -1029 -10 -56 -281 -2068
-281 -2086 0 -5 -849 -9 -1887 -9 -1236 0 -1910 -4 -1951 -10 -179 -29 -322
-133 -401 -291 -149 -297 -4 -647 312 -754 l76 -25 1030 0 c566 0 1032 -3
1034 -7 2 -5 -241 -1886 -541 -4181 l-545 -4173 16 -80 c30 -153 108 -275 225
-353 214 -142 486 -122 671 50 76 70 123 147 150 244 14 48 214 1558 567 4265
299 2305 547 4200 550 4213 l4 22 270 0 c190 0 270 -3 270 -11 0 -6 -120 -903
-267 -1993 -288 -2140 -286 -2124 -244 -2240 118 -326 471 -464 776 -303 110
59 208 176 249 301 9 27 142 987 296 2135 154 1147 282 2091 284 2098 4 8 124
12 448 16 390 3 459 7 578 25 536 85 973 290 1323 623 292 275 513 660 611
1060 45 187 60 318 60 534 1 431 -105 802 -322 1135 -298 458 -742 739 -1294
820 -116 17 -184 20 -533 19 -286 -1 -423 -5 -481 -15z m964 -1092 c301 -91
491 -307 569 -646 25 -107 22 -344 -5 -462 -110 -483 -457 -793 -1007 -900
-92 -19 -765 -33 -765 -17 0 36 253 1885 261 1911 15 46 66 101 114 124 37 17
66 18 400 15 336 -3 365 -5 433 -25z"/>
</g>
</svg>
